<svg width="27" height="27" viewBox="0 0 27 27" fill="none" xmlns="http://www.w3.org/2000/svg">
<g clip-path="url(#clip0)">
<path d="M6.54168 8.08331H18.4584C18.7578 8.08331 19 7.84103 19 7.54163C19 7.24222 18.7578 6.99994 18.4584 6.99994H6.54168C6.24228 6.99994 6 7.24222 6 7.54163C6.00005 7.84109 6.24233 8.08331 6.54168 8.08331Z" fill="#9C9C9C"/>
<path d="M13.0417 13.5H6.54168C6.24228 13.5 6 13.7423 6 14.0417C6 14.3411 6.24228 14.5834 6.54168 14.5834H13.0417C13.3411 14.5834 13.5834 14.3411 13.5834 14.0417C13.5834 13.7423 13.3411 13.5 13.0417 13.5Z" fill="#9C9C9C"/>
<path d="M24.5098 3.75C24.4784 3.75 24.448 3.75787 24.4167 3.75934V3.75C24.4167 2.55506 23.4445 1.58331 22.2501 1.58331H2.75006C1.55563 1.58331 0.583374 2.55506 0.583374 3.75V24.875C0.583374 25.094 0.715608 25.2918 0.917667 25.3754C0.984343 25.4034 1.05518 25.4167 1.12501 25.4167C1.26572 25.4167 1.4043 25.3617 1.508 25.258L6.76599 20H22.2501C23.4445 20 24.4167 19.0283 24.4167 17.8333V8.84899L25.9761 7.28986C25.9761 7.28986 25.9761 7.28986 25.9761 7.28935C26.3623 6.90321 26.5834 6.36894 26.5834 5.82355C26.5834 4.67995 25.6535 3.75 24.5098 3.75ZM23.3334 17.8333C23.3334 18.4305 22.8478 18.9166 22.2501 18.9166H6.54169C6.39783 18.9166 6.26026 18.9738 6.1587 19.0753L1.66669 23.5674V3.75C1.66669 3.15281 2.15231 2.66668 2.75001 2.66668H22.25C22.8478 2.66668 23.3334 3.15281 23.3334 3.75V4.11999C23.2305 4.19068 23.1322 4.26842 23.0435 4.35724L17.1498 10.25H6.54169C6.24228 10.25 6.00001 10.4923 6.00001 10.7917C6.00001 11.0911 6.24228 11.3334 6.54169 11.3334H16.2808L15.7606 13.9354C15.7247 14.1131 15.7807 14.2967 15.9087 14.4247C16.0114 14.5273 16.15 14.5834 16.2917 14.5834C16.3267 14.5834 16.3626 14.5797 16.3975 14.5728L19.1048 14.0311C19.2106 14.0099 19.3069 13.9587 19.382 13.883L23.3334 9.93221V17.8333ZM18.7324 13.0012L16.9826 13.3514L17.3328 11.5994L22.2498 6.68236L23.6507 8.08326L18.7324 13.0012ZM25.2101 6.52392L24.4167 7.31738L23.0157 5.91638L23.8094 5.12266C23.9935 4.93909 24.2485 4.83331 24.5098 4.83331C25.0557 4.83331 25.5 5.27765 25.5 5.82355C25.5001 6.0838 25.3942 6.33933 25.2101 6.52392Z" fill="#9C9C9C"/>
</g>
<defs>
<clipPath id="clip0">
<rect width="26" height="26" fill="white" transform="translate(0.583374 0.5)"/>
</clipPath>
</defs>
</svg>
