<svg width="27" height="27" viewBox="0 0 27 27" fill="none" xmlns="http://www.w3.org/2000/svg">
<g clip-path="url(#clip0)">
<path d="M24.0824 11.1884C23.8803 11.1043 23.6465 11.1508 23.4921 11.3059L20.1479 14.649C19.9205 14.877 19.6327 15.0303 19.3185 15.0933L16.6102 15.635C16.0706 15.7439 15.5247 15.5726 15.1428 15.1911C14.7577 14.8055 14.5916 14.2565 14.6985 13.7233L15.1762 11.3333H6.54169C6.24228 11.3333 6.00001 11.0911 6.00001 10.7917C6.00001 10.4923 6.24228 10.25 6.54169 10.25H15.6346C15.6535 10.2291 15.6644 10.2029 15.6844 10.1828L17.7842 8.08329H6.54169C6.24228 8.08329 6.00001 7.84101 6.00001 7.54161C6.00001 7.2422 6.24228 6.99993 6.54169 6.99993H18.4584C18.5737 6.99993 18.6747 7.0439 18.7625 7.10525L22.2775 3.59068C22.5737 3.29391 22.9324 3.06062 23.3439 2.89665C23.5312 2.82205 23.6613 2.64909 23.6814 2.44861C23.7026 2.24761 23.6095 2.05241 23.4413 1.9413C23.0847 1.70694 22.6732 1.58319 22.2501 1.58319H2.75006C1.55563 1.58334 0.583374 2.55509 0.583374 3.75003V24.875C0.583374 25.094 0.715608 25.2918 0.917667 25.3754C0.984343 25.4035 1.05518 25.4167 1.12501 25.4167C1.26572 25.4167 1.4043 25.3617 1.508 25.258L6.76599 20H22.2501C23.4445 20 24.4167 19.0283 24.4167 17.8333V11.6888C24.4167 11.4698 24.2845 11.272 24.0824 11.1884ZM13.0417 14.5833H6.54169C6.24228 14.5833 6.00001 14.3411 6.00001 14.0417C6.00001 13.7423 6.24228 13.5 6.54169 13.5H13.0417C13.3411 13.5 13.5834 13.7423 13.5834 14.0417C13.5834 14.3411 13.3411 14.5833 13.0417 14.5833Z" fill="#63C3EF"/>
<path d="M24.5098 3.75C23.9629 3.75 23.4286 3.97166 23.0435 4.35724L16.4504 10.9493C16.3742 11.025 16.3234 11.1212 16.3023 11.226L15.7606 13.9353C15.7246 14.1131 15.7807 14.2967 15.9087 14.4246C16.0113 14.5273 16.1499 14.5833 16.2917 14.5833C16.3266 14.5833 16.3626 14.5796 16.3975 14.5728L19.1048 14.0311C19.2105 14.0099 19.3068 13.9586 19.3819 13.8829L25.9761 7.28986C25.9761 7.28986 25.9761 7.28986 25.9761 7.28935C26.3622 6.90321 26.5833 6.36894 26.5833 5.82355C26.5834 4.67996 25.6535 3.75 24.5098 3.75ZM23.6507 8.08327L22.2498 6.68236L23.0157 5.91643L24.4168 7.31743L23.6507 8.08327Z" fill="#63C3EF"/>
</g>
<defs>
<clipPath id="clip0">
<rect width="26" height="26" fill="white" transform="translate(0.583374 0.5)"/>
</clipPath>
</defs>
</svg>
