<svg width="27" height="27" viewBox="0 0 27 27" fill="none" xmlns="http://www.w3.org/2000/svg">
<g clip-path="url(#clip0)">
<path d="M26.5833 10.5454C26.5831 10.3627 26.499 10.1904 26.3543 10.0786C26.3537 10.0781 24.9096 8.95891 23.0379 7.48926V5.22726C23.0379 3.92369 21.9779 2.8636 20.6743 2.8636H17.2327C16.3907 2.17595 15.66 1.56801 15.172 1.1353C14.7028 0.72004 14.1433 0.500055 13.5838 0.5C13.0239 0.499945 12.4641 0.720261 11.9953 1.13536C11.5073 1.56807 10.7767 2.176 9.93413 2.86366H6.49249C5.18887 2.86366 4.12883 3.92369 4.12883 5.22726V7.4892C2.25672 8.95874 0.813053 10.0781 0.812444 10.0786C0.667745 10.1904 0.583651 10.3627 0.583485 10.5454H0.583374V24.1363C0.583374 25.4399 1.64341 26.5 2.94703 26.5H24.2198C25.5233 26.5 26.5834 25.44 26.5834 24.1363V10.5454H26.5833ZM23.0379 8.99109C23.8644 9.63819 24.5659 10.1851 25.0282 10.5449C24.5666 10.9033 23.864 11.4498 23.0379 12.0957V8.99109ZM12.779 2.01995C13.2856 1.571 13.8806 1.5704 14.3884 2.0205C14.6544 2.25572 14.9897 2.54157 15.375 2.8636H11.7922C12.1776 2.54157 12.513 2.2555 12.779 2.01995ZM5.31063 5.22726C5.31063 4.57578 5.84095 4.04546 6.49243 4.04546H20.6743C21.3258 4.04546 21.8561 4.57578 21.8561 5.22726V13.0219C19.211 15.0994 15.893 17.7383 14.3884 19.0703C14.2458 19.1967 13.9486 19.4091 13.5649 19.4091C13.2844 19.4091 13.0138 19.2954 12.7599 19.0703C11.2461 17.73 7.94468 15.0996 5.31063 13.0272V5.22726ZM4.12883 8.99109V12.0995C3.30224 11.4521 2.59958 10.9044 2.13795 10.5455C2.59991 10.1856 3.30174 9.63864 4.12883 8.99109ZM25.4016 24.1364C25.4016 24.7879 24.8712 25.3182 24.2198 25.3182H2.94703C2.29555 25.3182 1.76523 24.7879 1.76523 24.1364V11.752C4.22988 13.6704 9.93202 18.1446 11.9763 19.9556C12.446 20.3711 12.9954 20.5909 13.565 20.5909C14.1385 20.5909 14.7092 20.3653 15.172 19.9556C17.2965 18.0743 23.1118 13.5312 25.4016 11.7516V24.1364Z" fill="#9C9C9C"/>
<path d="M11.8107 9.95456C12.137 9.95456 12.4016 9.68999 12.4016 9.36363C12.4016 9.03727 12.137 8.77271 11.8107 8.77271C11.4843 8.77271 11.2197 9.03727 11.2197 9.36363C11.2197 9.68999 11.4843 9.95456 11.8107 9.95456Z" fill="#9C9C9C"/>
<path d="M15.3562 9.95456C15.6825 9.95456 15.9471 9.68999 15.9471 9.36363C15.9471 9.03727 15.6825 8.77271 15.3562 8.77271C15.0298 8.77271 14.7653 9.03727 14.7653 9.36363C14.7653 9.68999 15.0298 9.95456 15.3562 9.95456Z" fill="#9C9C9C"/>
<path d="M15.422 13.1803C15.5264 13.3829 15.733 13.5 15.9477 13.5C16.0366 13.5 16.1266 13.4798 16.2114 13.4377C16.5034 13.2917 16.6217 12.9368 16.4757 12.6448C16.4451 12.5831 15.6972 11.1364 13.5835 11.1364C11.4697 11.1364 10.7219 12.5831 10.6913 12.6448C10.547 12.9333 10.663 13.2807 10.9498 13.429C11.2366 13.579 11.591 13.466 11.7445 13.1809C11.7635 13.1457 12.2251 12.3182 13.5835 12.3182C14.9315 12.3182 15.3966 13.1336 15.422 13.1803Z" fill="#9C9C9C"/>
</g>
<defs>
<clipPath id="clip0">
<rect width="26" height="26" fill="white" transform="translate(0.583374 0.5)"/>
</clipPath>
</defs>
</svg>
