<svg width="27" height="27" viewBox="0 0 27 27" fill="none" xmlns="http://www.w3.org/2000/svg">
<g clip-path="url(#clip0)">
<path d="M25.9377 10.0807C25.9371 10.0802 24.493 8.96113 22.6213 7.4917V5.22998C22.6213 3.92658 21.5613 2.8666 20.2576 2.8666H16.816C15.9741 2.17906 15.2434 1.57118 14.7554 1.13852C14.252 0.693068 13.6446 0.470923 13.0451 0.503276C12.5263 0.531252 12.0134 0.753674 11.5786 1.13852C11.0906 1.57118 10.36 2.17906 9.51745 2.8666H6.07581C4.77224 2.8666 3.7122 3.92653 3.7122 5.22998V7.49165C1.84009 8.96102 0.396427 10.0802 0.395818 10.0808C0.254554 10.1913 0.166748 10.3637 0.166748 10.5476V24.1368C0.166748 25.4402 1.22678 26.5002 2.5304 26.5002H23.8031C25.1067 26.5002 26.1668 25.4403 26.1668 24.1368V10.5476C26.1667 10.3637 26.079 10.1913 25.9377 10.0807ZM15.5304 9.36382C15.5304 9.69016 15.2658 9.95475 14.9394 9.95475C14.6131 9.95475 14.3486 9.69016 14.3486 9.36382C14.3486 9.03741 14.6132 8.77289 14.9395 8.77289C15.2659 8.77289 15.5304 9.03741 15.5304 9.36382ZM12.3623 2.02012C12.869 1.57118 13.4639 1.57057 13.9718 2.02068C14.2377 2.25589 14.5731 2.54175 14.9584 2.86377H11.3756C11.7609 2.54175 12.0964 2.25567 12.3623 2.02012ZM11.394 8.77289C11.7204 8.77289 11.985 9.03741 11.985 9.36382C11.985 9.69016 11.7204 9.95475 11.394 9.95475C11.0677 9.95475 10.8031 9.69016 10.8031 9.36382C10.8031 9.03741 11.0677 8.77289 11.394 8.77289ZM10.2745 12.645C10.3051 12.5833 11.053 11.1365 13.1668 11.1365C15.2806 11.1365 16.0284 12.5833 16.059 12.645C16.205 12.937 16.0867 13.2919 15.7947 13.4379C15.7099 13.48 15.6198 13.5002 15.531 13.5002C15.3163 13.5002 15.1097 13.383 15.0053 13.1805C14.9799 13.1337 14.5148 12.3183 13.1668 12.3183C11.8084 12.3183 11.3467 13.1459 11.3277 13.1811C11.1742 13.4661 10.8198 13.5793 10.5331 13.4292C10.2463 13.2809 10.1303 12.9335 10.2745 12.645ZM13.9718 19.0706C13.8292 19.1969 13.532 19.4093 13.1483 19.4093C12.8678 19.4093 12.5972 19.2956 12.3433 19.0706C10.0545 17.0438 3.68899 12.0754 1.72099 10.5454C2.18273 10.1863 2.88656 9.63776 3.7122 8.99132V10.3108C3.7122 10.4925 3.79586 10.6645 3.939 10.7765C6.34421 12.6571 10.6894 16.0802 12.7715 17.876C12.8823 17.9718 13.0202 18.0197 13.1576 18.0197C13.2949 18.0197 13.4322 17.9718 13.543 17.8766C15.6176 16.0889 19.979 12.6594 22.394 10.7742C22.5377 10.6622 22.6213 10.4903 22.6213 10.3085V8.99154C23.4466 9.63787 24.1502 10.1861 24.612 10.5451C22.6377 12.0771 16.2429 17.06 13.9718 19.0706Z" fill="#63C3EF"/>
</g>
<defs>
<clipPath id="clip0">
<rect width="26" height="26" fill="white" transform="translate(0.166748 0.5)"/>
</clipPath>
</defs>
</svg>
