<svg width="27" height="27" viewBox="0 0 27 27" fill="none" xmlns="http://www.w3.org/2000/svg">
<g clip-path="url(#clip0)">
<path d="M26.5834 25.6334H0.583374V26.5H26.5834V25.6334Z" fill="#63C3EF"/>
<path d="M2.31676 24.7666H6.65009C6.8894 24.7666 7.08342 24.5726 7.08342 24.3333V16.5333C7.08342 16.294 6.8894 16.1 6.65009 16.1H2.31676C2.07745 16.1 1.88342 16.294 1.88342 16.5333V24.3333C1.88342 24.5726 2.07745 24.7666 2.31676 24.7666ZM2.75009 16.9666H6.21676V23.9H2.75009V16.9666Z" fill="#63C3EF"/>
<path d="M2.75009 16.9666H6.21676V23.9H2.75009V16.9666Z" fill="#63C3EF"/>
<path d="M14.4501 24.7667H18.7834C19.0227 24.7667 19.2167 24.5727 19.2167 24.3334V11.3334C19.2167 11.094 19.0227 10.9 18.7834 10.9H14.4501C14.2107 10.9 14.0167 11.094 14.0167 11.3334V24.3334C14.0167 24.5727 14.2107 24.7667 14.4501 24.7667ZM14.8834 11.7667H18.3501V23.9H14.8834V11.7667Z" fill="#63C3EF"/>
<path d="M14.8834 11.7667H18.3501V23.9H14.8834V11.7667Z" fill="#63C3EF"/>
<path d="M8.38341 24.7667H12.7167C12.956 24.7667 13.1501 24.5727 13.1501 24.3333V6.13335C13.1501 5.89404 12.956 5.70001 12.7167 5.70001H8.38341C8.1441 5.70001 7.95007 5.89404 7.95007 6.13335V24.3333C7.95007 24.5727 8.1441 24.7667 8.38341 24.7667ZM8.81674 6.56668H12.2834V23.9H8.81674V6.56668Z" fill="#63C3EF"/>
<path d="M8.81674 6.56668H12.2834V23.9H8.81674V6.56668Z" fill="#63C3EF"/>
<path d="M20.5167 24.7667H24.85C25.0893 24.7667 25.2834 24.5726 25.2834 24.3333V0.933333C25.2834 0.694025 25.0893 0.5 24.85 0.5H20.5167C20.2774 0.5 20.0834 0.694025 20.0834 0.933333V24.3333C20.0834 24.5726 20.2774 24.7667 20.5167 24.7667ZM20.95 1.36667H24.4167V23.9H20.95V1.36667Z" fill="#63C3EF"/>
<path d="M20.95 1.36667H24.4167V23.9H20.95V1.36667Z" fill="#63C3EF"/>
</g>
<defs>
<clipPath id="clip0">
<rect width="26" height="26" fill="white" transform="translate(0.583374 0.5)"/>
</clipPath>
</defs>
</svg>
